  0
SECTION
  2
HEADER
  9
$ACADVER
  1
AC1014
  9
$HANDSEED
  5
FFFF
  9
$MEASUREMENT
 70
     1
  0
ENDSEC
  0
SECTION
  2
TABLES
  0
TABLE
  2
VPORT
  5
8
330
0
100
AcDbSymbolTable
 70
     4
  0
VPORT
  5
2E
330
8
100
AcDbSymbolTableRecord
100
AcDbViewportTableRecord
  2
*ACTIVE
 70
     0
 10
0.0
 20
0.0
 11
1.0
 21
1.0
 12
210.0
 22
148.5
 13
0.0
 23
0.0
 14
10.0
 24
10.0
 15
10.0
 25
10.0
 16
0.0
 26
0.0
 36
1.0
 17
0.0
 27
0.0
 37
0.0
 40
341.0
 41
1.24
 42
50.0
 43
0.0
 44
0.0
 50
0.0
 51
0.0
 71
     0
 72
   100
 73
     1
 74
     3
 75
     0
 76
     0
 77
     0
 78
     0
  0
ENDTAB
  0
TABLE
  2
LTYPE
  5
5
330
0
100
AcDbSymbolTable
 70
     1
  0
LTYPE
  5
14
330
5
100
AcDbSymbolTableRecord
100
AcDbLinetypeTableRecord
  2
BYBLOCK
 70
     0
  3

 72
    65
 73
     0
 40
0.0
  0
LTYPE
  5
15
330
5
100
AcDbSymbolTableRecord
100
AcDbLinetypeTableRecord
  2
BYLAYER
 70
     0
  3

 72
    65
 73
     0
 40
0.0
  0
LTYPE
  5
16
330
5
100
AcDbSymbolTableRecord
100
AcDbLinetypeTableRecord
  2
CONTINUOUS
 70
     0
  3
Solid line
 72
    65
 73
     0
 40
0.0
  0
ENDTAB
  0
TABLE
  2
LAYER
  5
2
100
AcDbSymbolTable
 70
2
  0
LAYER
  5
50
100
AcDbSymbolTableRecord
100
AcDbLayerTableRecord
  2
0
 70
0
  6
CONTINUOUS
  0
LAYER
  5
51
100
AcDbSymbolTableRecord
100
AcDbLayerTableRecord
  2
Layer_1
 70
0
  6
CONTINUOUS
  0
ENDTAB
  0
TABLE
  2
STYLE
  5
3
330
0
100
AcDbSymbolTable
 70
     1
  0
STYLE
  5
11
330
3
100
AcDbSymbolTableRecord
100
AcDbTextStyleTableRecord
  2
STANDARD
 70
     0
 40
0.0
 41
1.0
 50
0.0
 71
     0
 42
2.5
  3
txt
  4

  0
ENDTAB
  0
TABLE
  2
VIEW
  5
6
330
0
100
AcDbSymbolTable
 70
     0
  0
ENDTAB
  0
TABLE
  2
UCS
  5
7
330
0
100
AcDbSymbolTable
 70
     0
  0
ENDTAB
  0
TABLE
  2
APPID
  5
9
330
0
100
AcDbSymbolTable
 70
     2
  0
APPID
  5
12
330
9
100
AcDbSymbolTableRecord
100
AcDbRegAppTableRecord
  2
ACAD
 70
     0
  0
ENDTAB
  0
TABLE
  2
DIMSTYLE
  5
A
330
0
100
AcDbSymbolTable
 70
     1
  0
DIMSTYLE
105
27
330
A
100
AcDbSymbolTableRecord
100
AcDbDimStyleTableRecord
  2
ISO-25
 70
     0
  3

  4

  5

  6

  7

 40
1.0
 41
2.5
 42
0.625
 43
3.75
 44
1.25
 45
0.0
 46
0.0
 47
0.0
 48
0.0
140
2.5
141
2.5
142
0.0
143
0.03937007874016
144
1.0
145
0.0
146
1.0
147
0.625
 71
     0
 72
     0
 73
     0
 74
     0
 75
     0
 76
     0
 77
     1
 78
     8
170
     0
171
     3
172
     1
173
     0
174
     0
175
     0
176
     0
177
     0
178
     0
270
     2
271
     2
272
     2
273
     2
274
     3
340
11
275
     0
280
     0
281
     0
282
     0
283
     0
284
     8
285
     0
286
     0
287
     3
288
     0
  0
ENDTAB
  0
TABLE
  2
BLOCK_RECORD
  5
1
330
0
100
AcDbSymbolTable
 70
     1
  0
BLOCK_RECORD
  5
1F
330
1
100
AcDbSymbolTableRecord
100
AcDbBlockTableRecord
  2
*MODEL_SPACE
  0
BLOCK_RECORD
  5
1B
330
1
100
AcDbSymbolTableRecord
100
AcDbBlockTableRecord
  2
*PAPER_SPACE
  0
ENDTAB
  0
ENDSEC
  0
SECTION
  2
BLOCKS
  0
BLOCK
  5
20
330
1F
100
AcDbEntity
  8
0
100
AcDbBlockBegin
  2
*MODEL_SPACE
 70
     0
 10
0.0
 20
0.0
 30
0.0
  3
*MODEL_SPACE
  1

  0
ENDBLK
  5
21
330
1F
100
AcDbEntity
  8
0
100
AcDbBlockEnd
  0
BLOCK
  5
1C
330
1B
100
AcDbEntity
 67
     1
  8
0
100
AcDbBlockBegin
  2
*PAPER_SPACE
  1

  0
ENDBLK
  5
1D
330
1B
100
AcDbEntity
 67
     1
  8
0
100
AcDbBlockEnd
  0
ENDSEC
  0
SECTION
  2
ENTITIES
  0
LWPOLYLINE
  5
100
100
AcDbEntity
  8
Layer_1
 62
7
100
AcDbPolyline
 90
4
 70
1
 10
0.006615
 20
28.364656
 30
0.0
 10
0.006615
 20
0.006615
 30
0.0
 10
54.988167
 20
0.006615
 30
0.0
 10
54.988167
 20
28.364656
 30
0.0
  0
LWPOLYLINE
  5
101
100
AcDbEntity
  8
Layer_1
 62
7
100
AcDbPolyline
 90
17
 70
1
 10
1.843270
 20
26.921500
 30
0.0
 10
1.993826
 20
26.891529
 30
0.0
 10
2.121450
 20
26.806222
 30
0.0
 10
2.206711
 20
26.678567
 30
0.0
 10
2.236629
 20
26.528001
 30
0.0
 10
2.205704
 20
26.374895
 30
0.0
 10
2.121403
 20
26.249865
 30
0.0
 10
1.996375
 20
26.165562
 30
0.0
 10
1.843270
 20
26.134634
 30
0.0
 10
1.692701
 20
26.164552
 30
0.0
 10
1.565045
 20
26.249815
 30
0.0
 10
1.479737
 20
26.377442
 30
0.0
 10
1.449769
 20
26.528001
 30
0.0
 10
1.479700
 20
26.678600
 30
0.0
 10
1.564998
 20
26.806272
 30
0.0
 10
1.692671
 20
26.891570
 30
0.0
 10
1.843270
 20
26.921500
 30
0.0
  0
LWPOLYLINE
  5
102
100
AcDbEntity
  8
Layer_1
 62
7
100
AcDbPolyline
 90
17
 70
1
 10
53.151513
 20
26.921500
 30
0.0
 10
53.302071
 20
26.891531
 30
0.0
 10
53.429697
 20
26.806224
 30
0.0
 10
53.514961
 20
26.678569
 30
0.0
 10
53.544879
 20
26.528001
 30
0.0
 10
53.513953
 20
26.374893
 30
0.0
 10
53.429651
 20
26.249863
 30
0.0
 10
53.304620
 20
26.165560
 30
0.0
 10
53.151513
 20
26.134634
 30
0.0
 10
52.998406
 20
26.165560
 30
0.0
 10
52.873376
 20
26.249863
 30
0.0
 10
52.789073
 20
26.374893
 30
0.0
 10
52.758147
 20
26.528001
 30
0.0
 10
52.788065
 20
26.678569
 30
0.0
 10
52.873329
 20
26.806224
 30
0.0
 10
53.000955
 20
26.891531
 30
0.0
 10
53.151513
 20
26.921500
 30
0.0
  0
LWPOLYLINE
  5
103
100
AcDbEntity
  8
Layer_1
 62
7
100
AcDbPolyline
 90
40
 70
1
 10
5.529845
 20
21.453369
 30
0.0
 10
28.782494
 20
21.453369
 30
0.0
 10
29.316820
 20
21.400320
 30
0.0
 10
29.814097
 20
21.246364
 30
0.0
 10
30.263659
 20
21.003128
 30
0.0
 10
30.654834
 20
20.680452
 30
0.0
 10
30.977374
 20
20.289412
 30
0.0
 10
31.220740
 20
19.839853
 30
0.0
 10
31.374563
 20
19.342439
 30
0.0
 10
31.428300
 20
18.807562
 30
0.0
 10
31.452499
 20
6.345563
 30
0.0
 10
31.452499
 20
6.333789
 30
0.0
 10
31.374562
 20
5.792761
 30
0.0
 10
31.220739
 20
5.295485
 30
0.0
 10
30.977373
 20
4.845926
 30
0.0
 10
30.654833
 20
4.454747
 30
0.0
 10
30.263658
 20
4.132210
 30
0.0
 10
29.814097
 20
3.888835
 30
0.0
 10
29.316819
 20
3.735017
 30
0.0
 10
28.782493
 20
3.681283
 30
0.0
 10
28.768542
 20
3.681283
 30
0.0
 10
5.532856
 20
3.681283
 30
0.0
 10
5.529839
 20
3.681283
 30
0.0
 10
4.994960
 20
3.735017
 30
0.0
 10
4.498364
 20
3.888835
 30
0.0
 10
4.048673
 20
4.132210
 30
0.0
 10
3.656946
 20
4.454747
 30
0.0
 10
3.334409
 20
4.845926
 30
0.0
 10
3.091034
 20
5.295485
 30
0.0
 10
2.937896
 20
5.792761
 30
0.0
 10
2.878011
 20
6.333789
 30
0.0
 10
2.884043
 20
18.807549
 30
0.0
 10
2.897722
 20
18.942910
 30
0.0
 10
2.937917
 20
19.342425
 30
0.0
 10
3.091053
 20
19.839839
 30
0.0
 10
3.334427
 20
20.289398
 30
0.0
 10
3.656968
 20
20.680439
 30
0.0
 10
4.048691
 20
21.003114
 30
0.0
 10
4.498382
 20
21.246351
 30
0.0
 10
4.994979
 20
21.400307
 30
0.0
  0
LWPOLYLINE
  5
104
100
AcDbEntity
  8
Layer_1
 62
7
100
AcDbPolyline
 90
17
 70
1
 10
1.843270
 20
2.236774
 30
0.0
 10
1.996375
 20
2.205847
 30
0.0
 10
2.121403
 20
2.121543
 30
0.0
 10
2.205704
 20
1.996513
 30
0.0
 10
2.236629
 20
1.843408
 30
0.0
 10
2.206711
 20
1.692841
 30
0.0
 10
2.121450
 20
1.565187
 30
0.0
 10
1.993826
 20
1.479880
 30
0.0
 10
1.843270
 20
1.449909
 30
0.0
 10
1.692671
 20
1.479839
 30
0.0
 10
1.564998
 20
1.565136
 30
0.0
 10
1.479699
 20
1.692808
 30
0.0
 10
1.449769
 20
1.843408
 30
0.0
 10
1.479737
 20
1.993966
 30
0.0
 10
1.565045
 20
2.121594
 30
0.0
 10
1.692701
 20
2.206857
 30
0.0
 10
1.843270
 20
2.236774
 30
0.0
  0
LWPOLYLINE
  5
105
100
AcDbEntity
  8
Layer_1
 62
7
100
AcDbPolyline
 90
17
 70
1
 10
53.151513
 20
2.236774
 30
0.0
 10
53.304620
 20
2.205849
 30
0.0
 10
53.429651
 20
2.121546
 30
0.0
 10
53.513953
 20
1.996515
 30
0.0
 10
53.544879
 20
1.843408
 30
0.0
 10
53.514961
 20
1.692840
 30
0.0
 10
53.429697
 20
1.565184
 30
0.0
 10
53.302071
 20
1.479878
 30
0.0
 10
53.151513
 20
1.449909
 30
0.0
 10
53.000955
 20
1.479878
 30
0.0
 10
52.873329
 20
1.565184
 30
0.0
 10
52.788065
 20
1.692840
 30
0.0
 10
52.758147
 20
1.843408
 30
0.0
 10
52.789073
 20
1.996515
 30
0.0
 10
52.873375
 20
2.121545
 30
0.0
 10
52.998406
 20
2.205849
 30
0.0
 10
53.151513
 20
2.236774
 30
0.0
  0
LWPOLYLINE
  5
106
100
AcDbEntity
  8
Layer_1
 62
7
100
AcDbPolyline
 90
20
 70
1
 10
5.181740
 20
5.813692
 30
0.0
 10
5.011780
 20
5.779376
 30
0.0
 10
4.872593
 20
5.685306
 30
0.0
 10
4.778528
 20
5.546254
 30
0.0
 10
4.744342
 20
5.376167
 30
0.0
 10
4.744342
 20
4.714269
 30
0.0
 10
4.778528
 20
4.544182
 30
0.0
 10
4.872593
 20
4.405130
 30
0.0
 10
5.011780
 20
4.310925
 30
0.0
 10
5.181740
 20
4.276744
 30
0.0
 10
7.369918
 20
4.276744
 30
0.0
 10
7.540691
 20
4.310925
 30
0.0
 10
7.679738
 20
4.405130
 30
0.0
 10
7.773122
 20
4.544182
 30
0.0
 10
7.808124
 20
4.714269
 30
0.0
 10
7.808124
 20
5.376167
 30
0.0
 10
7.773122
 20
5.546254
 30
0.0
 10
7.679738
 20
5.685306
 30
0.0
 10
7.540691
 20
5.779376
 30
0.0
 10
7.369918
 20
5.813692
 30
0.0
  0
LWPOLYLINE
  5
107
100
AcDbEntity
  8
Layer_1
 62
7
100
AcDbPolyline
 90
17
 70
1
 10
5.604359
 20
5.438651
 30
0.0
 10
5.754918
 20
5.408682
 30
0.0
 10
5.882545
 20
5.323375
 30
0.0
 10
5.967809
 20
5.195718
 30
0.0
 10
5.997726
 20
5.045149
 30
0.0
 10
5.966800
 20
4.892042
 30
0.0
 10
5.882496
 20
4.767013
 30
0.0
 10
5.757466
 20
4.682710
 30
0.0
 10
5.604359
 20
4.651785
 30
0.0
 10
5.453792
 20
4.681703
 30
0.0
 10
5.326136
 20
4.766966
 30
0.0
 10
5.240830
 20
4.894592
 30
0.0
 10
5.210860
 20
5.045149
 30
0.0
 10
5.240790
 20
5.195749
 30
0.0
 10
5.326088
 20
5.323421
 30
0.0
 10
5.453760
 20
5.408720
 30
0.0
 10
5.604359
 20
5.438651
 30
0.0
  0
LWPOLYLINE
  5
108
100
AcDbEntity
  8
Layer_1
 62
7
100
AcDbPolyline
 90
17
 70
1
 10
6.948112
 20
5.438651
 30
0.0
 10
7.098670
 20
5.408682
 30
0.0
 10
7.226298
 20
5.323375
 30
0.0
 10
7.311561
 20
5.195718
 30
0.0
 10
7.341478
 20
5.045149
 30
0.0
 10
7.310552
 20
4.892042
 30
0.0
 10
7.226249
 20
4.767013
 30
0.0
 10
7.101219
 20
4.682710
 30
0.0
 10
6.948112
 20
4.651785
 30
0.0
 10
6.797544
 20
4.681703
 30
0.0
 10
6.669889
 20
4.766966
 30
0.0
 10
6.584582
 20
4.894592
 30
0.0
 10
6.554613
 20
5.045149
 30
0.0
 10
6.584543
 20
5.195749
 30
0.0
 10
6.669840
 20
5.323421
 30
0.0
 10
6.797513
 20
5.408720
 30
0.0
 10
6.948112
 20
5.438651
 30
0.0
  0
LWPOLYLINE
  5
109
100
AcDbEntity
  8
Layer_1
 62
7
100
AcDbPolyline
 90
20
 70
1
 10
26.941727
 20
5.813692
 30
0.0
 10
26.771781
 20
5.779376
 30
0.0
 10
26.632588
 20
5.685306
 30
0.0
 10
26.538522
 20
5.546116
 30
0.0
 10
26.504343
 20
5.376167
 30
0.0
 10
26.504343
 20
4.714134
 30
0.0
 10
26.538522
 20
4.544182
 30
0.0
 10
26.632588
 20
4.404992
 30
0.0
 10
26.771781
 20
4.310925
 30
0.0
 10
26.941727
 20
4.276744
 30
0.0
 10
29.129912
 20
4.276744
 30
0.0
 10
29.300685
 20
4.310925
 30
0.0
 10
29.439737
 20
4.404992
 30
0.0
 10
29.533117
 20
4.544182
 30
0.0
 10
29.568123
 20
4.714134
 30
0.0
 10
29.568123
 20
5.376167
 30
0.0
 10
29.533117
 20
5.546116
 30
0.0
 10
29.439737
 20
5.685306
 30
0.0
 10
29.300685
 20
5.779376
 30
0.0
 10
29.129912
 20
5.813692
 30
0.0
  0
LWPOLYLINE
  5
10a
100
AcDbEntity
  8
Layer_1
 62
7
100
AcDbPolyline
 90
17
 70
1
 10
27.364360
 20
5.438651
 30
0.0
 10
27.514916
 20
5.408680
 30
0.0
 10
27.642541
 20
5.323372
 30
0.0
 10
27.727803
 20
5.195716
 30
0.0
 10
27.757719
 20
5.045149
 30
0.0
 10
27.726794
 20
4.892044
 30
0.0
 10
27.642493
 20
4.767015
 30
0.0
 10
27.517465
 20
4.682712
 30
0.0
 10
27.364360
 20
4.651785
 30
0.0
 10
27.211251
 20
4.682708
 30
0.0
 10
27.086219
 20
4.767010
 30
0.0
 10
27.001914
 20
4.892041
 30
0.0
 10
26.970987
 20
5.045149
 30
0.0
 10
27.000905
 20
5.195719
 30
0.0
 10
27.086170
 20
5.323377
 30
0.0
 10
27.213800
 20
5.408683
 30
0.0
 10
27.364360
 20
5.438651
 30
0.0
  0
LWPOLYLINE
  5
10b
100
AcDbEntity
  8
Layer_1
 62
7
100
AcDbPolyline
 90
17
 70
1
 10
28.708113
 20
5.438651
 30
0.0
 10
28.858669
 20
5.408679
 30
0.0
 10
28.986294
 20
5.323372
 30
0.0
 10
29.071555
 20
5.195716
 30
0.0
 10
29.101472
 20
5.045149
 30
0.0
 10
29.070546
 20
4.892044
 30
0.0
 10
28.986245
 20
4.767015
 30
0.0
 10
28.861217
 20
4.682713
 30
0.0
 10
28.708113
 20
4.651785
 30
0.0
 10
28.557545
 20
4.681702
 30
0.0
 10
28.429889
 20
4.766965
 30
0.0
 10
28.344582
 20
4.894591
 30
0.0
 10
28.314612
 20
5.045149
 30
0.0
 10
28.344542
 20
5.195749
 30
0.0
 10
28.429840
 20
5.323422
 30
0.0
 10
28.557513
 20
5.408720
 30
0.0
 10
28.708113
 20
5.438651
 30
0.0
  0
LWPOLYLINE
  5
10c
100
AcDbEntity
  8
Layer_1
 62
7
100
AcDbPolyline
 90
4
 70
1
 10
57.228308
 20
28.364519
 30
0.0
 10
57.228308
 20
0.006615
 30
0.0
 10
112.209866
 20
0.006615
 30
0.0
 10
112.209866
 20
28.364519
 30
0.0
  0
LWPOLYLINE
  5
10d
100
AcDbEntity
  8
Layer_1
 62
7
100
AcDbPolyline
 90
17
 70
1
 10
59.064962
 20
26.921365
 30
0.0
 10
59.215521
 20
26.891396
 30
0.0
 10
59.343148
 20
26.806088
 30
0.0
 10
59.428411
 20
26.678432
 30
0.0
 10
59.458329
 20
26.527863
 30
0.0
 10
59.427403
 20
26.374756
 30
0.0
 10
59.343099
 20
26.249727
 30
0.0
 10
59.218069
 20
26.165424
 30
0.0
 10
59.064962
 20
26.134499
 30
0.0
 10
58.914393
 20
26.164415
 30
0.0
 10
58.786735
 20
26.249677
 30
0.0
 10
58.701426
 20
26.377304
 30
0.0
 10
58.671456
 20
26.527863
 30
0.0
 10
58.701387
 20
26.678464
 30
0.0
 10
58.786686
 20
26.806138
 30
0.0
 10
58.914361
 20
26.891436
 30
0.0
 10
59.064962
 20
26.921365
 30
0.0
  0
LWPOLYLINE
  5
10e
100
AcDbEntity
  8
Layer_1
 62
7
100
AcDbPolyline
 90
17
 70
1
 10
110.373205
 20
26.921365
 30
0.0
 10
110.523764
 20
26.891396
 30
0.0
 10
110.651391
 20
26.806089
 30
0.0
 10
110.736654
 20
26.678432
 30
0.0
 10
110.766572
 20
26.527863
 30
0.0
 10
110.735645
 20
26.374756
 30
0.0
 10
110.651342
 20
26.249727
 30
0.0
 10
110.526312
 20
26.165424
 30
0.0
 10
110.373205
 20
26.134499
 30
0.0
 10
110.220101
 20
26.165427
 30
0.0
 10
110.095075
 20
26.249731
 30
0.0
 10
110.010774
 20
26.374759
 30
0.0
 10
109.979849
 20
26.527863
 30
0.0
 10
110.009765
 20
26.678430
 30
0.0
 10
110.095026
 20
26.806085
 30
0.0
 10
110.222650
 20
26.891393
 30
0.0
 10
110.373205
 20
26.921365
 30
0.0
  0
LWPOLYLINE
  5
10f
100
AcDbEntity
  8
Layer_1
 62
7
100
AcDbPolyline
 90
4
 70
1
 10
67.937330
 20
21.245682
 30
0.0
 10
80.757959
 20
21.245682
 30
0.0
 10
80.757959
 20
3.821578
 30
0.0
 10
67.937330
 20
3.821578
 30
0.0
  0
LWPOLYLINE
  5
110
100
AcDbEntity
  8
Layer_1
 62
7
100
AcDbPolyline
 90
9
 70
1
 10
63.831004
 20
13.447035
 30
0.0
 10
63.952498
 20
13.396533
 30
0.0
 10
64.002999
 20
13.275032
 30
0.0
 10
63.952500
 20
13.153600
 30
0.0
 10
63.831004
 20
13.103167
 30
0.0
 10
63.709494
 20
13.153599
 30
0.0
 10
63.658993
 20
13.275032
 30
0.0
 10
63.709494
 20
13.396535
 30
0.0
 10
63.831004
 20
13.447035
 30
0.0
  0
LWPOLYLINE
  5
111
100
AcDbEntity
  8
Layer_1
 62
7
100
AcDbPolyline
 90
9
 70
1
 10
64.368617
 20
13.043829
 30
0.0
 10
64.490111
 20
12.993326
 30
0.0
 10
64.540612
 20
12.871823
 30
0.0
 10
64.490111
 20
12.750322
 30
0.0
 10
64.368617
 20
12.699820
 30
0.0
 10
64.247178
 20
12.750321
 30
0.0
 10
64.196748
 20
12.871823
 30
0.0
 10
64.247178
 20
12.993327
 30
0.0
 10
64.368617
 20
13.043829
 30
0.0
  0
LWPOLYLINE
  5
112
100
AcDbEntity
  8
Layer_1
 62
7
100
AcDbPolyline
 90
9
 70
1
 10
65.847180
 20
12.842290
 30
0.0
 10
65.968683
 20
12.791789
 30
0.0
 10
66.019183
 20
12.670287
 30
0.0
 10
65.968683
 20
12.548788
 30
0.0
 10
65.847180
 20
12.498287
 30
0.0
 10
65.725674
 20
12.548787
 30
0.0
 10
65.675171
 20
12.670287
 30
0.0
 10
65.725674
 20
12.791790
 30
0.0
 10
65.847180
 20
12.842290
 30
0.0
  0
LWPOLYLINE
  5
113
100
AcDbEntity
  8
Layer_1
 62
7
100
AcDbPolyline
 90
9
 70
1
 10
65.376705
 20
12.438946
 30
0.0
 10
65.498202
 20
12.388513
 30
0.0
 10
65.548706
 20
12.267081
 30
0.0
 10
65.498202
 20
12.145579
 30
0.0
 10
65.376705
 20
12.095078
 30
0.0
 10
65.255196
 20
12.145578
 30
0.0
 10
65.204695
 20
12.267081
 30
0.0
 10
65.255196
 20
12.388514
 30
0.0
 10
65.376705
 20
12.438946
 30
0.0
  0
LWPOLYLINE
  5
114
100
AcDbEntity
  8
Layer_1
 62
7
100
AcDbPolyline
 90
9
 70
1
 10
64.301478
 20
11.834201
 30
0.0
 10
64.422981
 20
11.783700
 30
0.0
 10
64.473481
 20
11.662198
 30
0.0
 10
64.422976
 20
11.540697
 30
0.0
 10
64.301478
 20
11.490195
 30
0.0
 10
64.179973
 20
11.540696
 30
0.0
 10
64.129470
 20
11.662198
 30
0.0
 10
64.179973
 20
11.783701
 30
0.0
 10
64.301478
 20
11.834201
 30
0.0
  0
LWPOLYLINE
  5
115
100
AcDbEntity
  8
Layer_1
 62
7
100
AcDbPolyline
 90
9
 70
1
 10
64.906356
 20
11.363725
 30
0.0
 10
65.027791
 20
11.313223
 30
0.0
 10
65.078224
 20
11.191722
 30
0.0
 10
65.027791
 20
11.070218
 30
0.0
 10
64.906356
 20
11.019716
 30
0.0
 10
64.784860
 20
11.070217
 30
0.0
 10
64.734361
 20
11.191722
 30
0.0
 10
64.784860
 20
11.313223
 30
0.0
 10
64.906356
 20
11.363725
 30
0.0
  0
LWPOLYLINE
  5
116
100
AcDbEntity
  8
Layer_1
 62
7
100
AcDbPolyline
 90
9
 70
1
 10
63.696601
 20
8.070784
 30
0.0
 10
63.818099
 20
8.020283
 30
0.0
 10
63.868604
 20
7.898784
 30
0.0
 10
63.818099
 20
7.777283
 30
0.0
 10
63.696601
 20
7.726781
 30
0.0
 10
63.575094
 20
7.777281
 30
0.0
 10
63.524593
 20
7.898784
 30
0.0
 10
63.575094
 20
8.020284
 30
0.0
 10
63.696601
 20
8.070784
 30
0.0
  0
LWPOLYLINE
  5
117
100
AcDbEntity
  8
Layer_1
 62
7
100
AcDbPolyline
 90
17
 70
1
 10
62.829339
 20
5.438513
 30
0.0
 10
62.979896
 20
5.408542
 30
0.0
 10
63.107520
 20
5.323234
 30
0.0
 10
63.192782
 20
5.195579
 30
0.0
 10
63.222698
 20
5.045012
 30
0.0
 10
63.191772
 20
4.891907
 30
0.0
 10
63.107471
 20
4.766879
 30
0.0
 10
62.982443
 20
4.682577
 30
0.0
 10
62.829339
 20
4.651650
 30
0.0
 10
62.676231
 20
4.682573
 30
0.0
 10
62.551200
 20
4.766875
 30
0.0
 10
62.466895
 20
4.891904
 30
0.0
 10
62.435968
 20
5.045012
 30
0.0
 10
62.465885
 20
5.195582
 30
0.0
 10
62.551150
 20
5.323239
 30
0.0
 10
62.678779
 20
5.408546
 30
0.0
 10
62.829339
 20
5.438513
 30
0.0
  0
LWPOLYLINE
  5
118
100
AcDbEntity
  8
Layer_1
 62
7
100
AcDbPolyline
 90
17
 70
1
 10
64.173092
 20
5.438513
 30
0.0
 10
64.323648
 20
5.408542
 30
0.0
 10
64.451273
 20
5.323234
 30
0.0
 10
64.536534
 20
5.195579
 30
0.0
 10
64.566451
 20
5.045012
 30
0.0
 10
64.535525
 20
4.891907
 30
0.0
 10
64.451223
 20
4.766880
 30
0.0
 10
64.326196
 20
4.682577
 30
0.0
 10
64.173092
 20
4.651650
 30
0.0
 10
64.022525
 20
4.681568
 30
0.0
 10
63.894870
 20
4.766830
 30
0.0
 10
63.809563
 20
4.894455
 30
0.0
 10
63.779593
 20
5.045012
 30
0.0
 10
63.809523
 20
5.195611
 30
0.0
 10
63.894821
 20
5.323284
 30
0.0
 10
64.022493
 20
5.408582
 30
0.0
 10
64.173092
 20
5.438513
 30
0.0
  0
LWPOLYLINE
  5
119
100
AcDbEntity
  8
Layer_1
 62
7
100
AcDbPolyline
 90
17
 70
1
 10
84.589332
 20
5.438513
 30
0.0
 10
84.739932
 20
5.408583
 30
0.0
 10
84.867605
 20
5.323285
 30
0.0
 10
84.952903
 20
5.195612
 30
0.0
 10
84.982833
 20
5.045012
 30
0.0
 10
84.952863
 20
4.894454
 30
0.0
 10
84.867555
 20
4.766829
 30
0.0
 10
84.739899
 20
4.681567
 30
0.0
 10
84.589332
 20
4.651650
 30
0.0
 10
84.436227
 20
4.682577
 30
0.0
 10
84.311199
 20
4.766879
 30
0.0
 10
84.226897
 20
4.891907
 30
0.0
 10
84.195970
 20
5.045012
 30
0.0
 10
84.225887
 20
5.195579
 30
0.0
 10
84.311149
 20
5.323235
 30
0.0
 10
84.438775
 20
5.408543
 30
0.0
 10
84.589332
 20
5.438513
 30
0.0
  0
LWPOLYLINE
  5
11a
100
AcDbEntity
  8
Layer_1
 62
7
100
AcDbPolyline
 90
17
 70
1
 10
85.933087
 20
5.438513
 30
0.0
 10
86.083645
 20
5.408544
 30
0.0
 10
86.211273
 20
5.323237
 30
0.0
 10
86.296536
 20
5.195580
 30
0.0
 10
86.326453
 20
5.045012
 30
0.0
 10
86.295527
 20
4.891905
 30
0.0
 10
86.211223
 20
4.766877
 30
0.0
 10
86.086193
 20
4.682575
 30
0.0
 10
85.933087
 20
4.651650
 30
0.0
 10
85.779982
 20
4.682577
 30
0.0
 10
85.654954
 20
4.766879
 30
0.0
 10
85.570652
 20
4.891907
 30
0.0
 10
85.539726
 20
5.045012
 30
0.0
 10
85.569642
 20
5.195579
 30
0.0
 10
85.654904
 20
5.323235
 30
0.0
 10
85.782530
 20
5.408543
 30
0.0
 10
85.933087
 20
5.438513
 30
0.0
  0
LWPOLYLINE
  5
11b
100
AcDbEntity
  8
Layer_1
 62
7
100
AcDbPolyline
 90
17
 70
1
 10
59.064962
 20
2.236637
 30
0.0
 10
59.218069
 20
2.205711
 30
0.0
 10
59.343099
 20
2.121409
 30
0.0
 10
59.427403
 20
1.996379
 30
0.0
 10
59.458329
 20
1.843273
 30
0.0
 10
59.428411
 20
1.692704
 30
0.0
 10
59.343148
 20
1.565047
 30
0.0
 10
59.215521
 20
1.479740
 30
0.0
 10
59.064962
 20
1.449771
 30
0.0
 10
58.914361
 20
1.479700
 30
0.0
 10
58.786686
 20
1.564998
 30
0.0
 10
58.701387
 20
1.692672
 30
0.0
 10
58.671456
 20
1.843273
 30
0.0
 10
58.701426
 20
1.993832
 30
0.0
 10
58.786735
 20
2.121459
 30
0.0
 10
58.914393
 20
2.206721
 30
0.0
 10
59.064962
 20
2.236637
 30
0.0
  0
LWPOLYLINE
  5
11c
100
AcDbEntity
  8
Layer_1
 62
7
100
AcDbPolyline
 90
17
 70
1
 10
110.373205
 20
2.236637
 30
0.0
 10
110.526312
 20
2.205712
 30
0.0
 10
110.651342
 20
2.121409
 30
0.0
 10
110.735645
 20
1.996380
 30
0.0
 10
110.766572
 20
1.843273
 30
0.0
 10
110.736654
 20
1.692704
 30
0.0
 10
110.651391
 20
1.565047
 30
0.0
 10
110.523764
 20
1.479740
 30
0.0
 10
110.373205
 20
1.449771
 30
0.0
 10
110.222650
 20
1.479743
 30
0.0
 10
110.095026
 20
1.565051
 30
0.0
 10
110.009765
 20
1.692706
 30
0.0
 10
109.979849
 20
1.843273
 30
0.0
 10
110.010774
 20
1.996377
 30
0.0
 10
110.095075
 20
2.121405
 30
0.0
 10
110.220101
 20
2.205708
 30
0.0
 10
110.373205
 20
2.236637
 30
0.0
  0
LWPOLYLINE
  5
11d
100
AcDbEntity
  8
Layer_1
 62
7
100
AcDbPolyline
 90
9
 70
1
 10
63.831010
 20
13.447112
 30
0.0
 10
63.709517
 20
13.396624
 30
0.0
 10
63.659028
 20
13.275133
 30
0.0
 10
63.709517
 20
13.153641
 30
0.0
 10
63.831010
 20
13.103154
 30
0.0
 10
63.952497
 20
13.153644
 30
0.0
 10
64.002986
 20
13.275133
 30
0.0
 10
63.952497
 20
13.396621
 30
0.0
 10
63.831010
 20
13.447112
 30
0.0
  0
LWPOLYLINE
  5
11e
100
AcDbEntity
  8
Layer_1
 62
7
100
AcDbPolyline
 90
9
 70
1
 10
63.696601
 20
8.070784
 30
0.0
 10
63.575109
 20
8.020297
 30
0.0
 10
63.524619
 20
7.898810
 30
0.0
 10
63.575109
 20
7.777317
 30
0.0
 10
63.696601
 20
7.726828
 30
0.0
 10
63.818089
 20
7.777318
 30
0.0
 10
63.868578
 20
7.898807
 30
0.0
 10
63.818089
 20
8.020295
 30
0.0
 10
63.696601
 20
8.070784
 30
0.0
  0
LWPOLYLINE
  5
11f
100
AcDbEntity
  8
Layer_1
 62
7
100
AcDbPolyline
 90
21
 70
1
 10
61.690843
 20
16.380873
 30
0.0
 10
66.897022
 20
16.380873
 30
0.0
 10
67.210076
 20
16.317981
 30
0.0
 10
67.465181
 20
16.146263
 30
0.0
 10
67.636898
 20
15.891158
 30
0.0
 10
67.699789
 20
15.578103
 30
0.0
 10
67.699789
 20
7.105486
 30
0.0
 10
67.636898
 20
6.792432
 30
0.0
 10
67.465181
 20
6.537328
 30
0.0
 10
67.210076
 20
6.365611
 30
0.0
 10
66.897022
 20
6.302719
 30
0.0
 10
61.690843
 20
6.302719
 30
0.0
 10
61.377787
 20
6.365611
 30
0.0
 10
61.122682
 20
6.537328
 30
0.0
 10
60.950965
 20
6.792432
 30
0.0
 10
60.888073
 20
7.105486
 30
0.0
 10
60.888073
 20
15.578103
 30
0.0
 10
60.950965
 20
15.891158
 30
0.0
 10
61.122682
 20
16.146263
 30
0.0
 10
61.377787
 20
16.317981
 30
0.0
 10
61.690843
 20
16.380873
 30
0.0
  0
LWPOLYLINE
  5
120
100
AcDbEntity
  8
Layer_1
 62
7
100
AcDbPolyline
 90
9
 70
1
 10
64.906276
 20
11.363785
 30
0.0
 10
64.784784
 20
11.313297
 30
0.0
 10
64.734294
 20
11.191806
 30
0.0
 10
64.784784
 20
11.070315
 30
0.0
 10
64.906276
 20
11.019827
 30
0.0
 10
65.027762
 20
11.070317
 30
0.0
 10
65.078250
 20
11.191806
 30
0.0
 10
65.027762
 20
11.313295
 30
0.0
 10
64.906276
 20
11.363785
 30
0.0
  0
LWPOLYLINE
  5
121
100
AcDbEntity
  8
Layer_1
 62
7
100
AcDbPolyline
 90
9
 70
1
 10
64.368643
 20
13.043887
 30
0.0
 10
64.247151
 20
12.993399
 30
0.0
 10
64.196661
 20
12.871908
 30
0.0
 10
64.247151
 20
12.750417
 30
0.0
 10
64.368643
 20
12.699929
 30
0.0
 10
64.490128
 20
12.750419
 30
0.0
 10
64.540617
 20
12.871908
 30
0.0
 10
64.490128
 20
12.993396
 30
0.0
 10
64.368643
 20
13.043887
 30
0.0
  0
LWPOLYLINE
  5
122
100
AcDbEntity
  8
Layer_1
 62
7
100
AcDbPolyline
 90
9
 70
1
 10
65.847132
 20
12.842274
 30
0.0
 10
65.725641
 20
12.791786
 30
0.0
 10
65.675150
 20
12.670295
 30
0.0
 10
65.725641
 20
12.548805
 30
0.0
 10
65.847132
 20
12.498316
 30
0.0
 10
65.968620
 20
12.548806
 30
0.0
 10
66.019109
 20
12.670295
 30
0.0
 10
65.968620
 20
12.791785
 30
0.0
 10
65.847132
 20
12.842274
 30
0.0
  0
LWPOLYLINE
  5
123
100
AcDbEntity
  8
Layer_1
 62
7
100
AcDbPolyline
 90
9
 70
1
 10
65.376705
 20
12.439052
 30
0.0
 10
65.255213
 20
12.388563
 30
0.0
 10
65.204724
 20
12.267070
 30
0.0
 10
65.255213
 20
12.145581
 30
0.0
 10
65.376705
 20
12.095094
 30
0.0
 10
65.498191
 20
12.145582
 30
0.0
 10
65.548679
 20
12.267070
 30
0.0
 10
65.498191
 20
12.388561
 30
0.0
 10
65.376705
 20
12.439052
 30
0.0
  0
LWPOLYLINE
  5
124
100
AcDbEntity
  8
Layer_1
 62
7
100
AcDbPolyline
 90
9
 70
1
 10
64.301439
 20
11.834215
 30
0.0
 10
64.179946
 20
11.783725
 30
0.0
 10
64.129457
 20
11.662233
 30
0.0
 10
64.179946
 20
11.540743
 30
0.0
 10
64.301439
 20
11.490256
 30
0.0
 10
64.422924
 20
11.540746
 30
0.0
 10
64.473413
 20
11.662233
 30
0.0
 10
64.422924
 20
11.783723
 30
0.0
 10
64.301439
 20
11.834215
 30
0.0
  0
LWPOLYLINE
  5
125
100
AcDbEntity
  8
Layer_1
 62
7
100
AcDbPolyline
 90
17
 70
1
 10
67.419784
 20
6.976150
 30
0.0
 10
67.389837
 20
6.825596
 30
0.0
 10
67.304556
 20
6.697962
 30
0.0
 10
67.176923
 20
6.612680
 30
0.0
 10
67.026369
 20
6.582733
 30
0.0
 10
66.875816
 20
6.612680
 30
0.0
 10
66.748183
 20
6.697962
 30
0.0
 10
66.662901
 20
6.825596
 30
0.0
 10
66.632955
 20
6.976150
 30
0.0
 10
66.663872
 20
7.129284
 30
0.0
 10
66.748183
 20
7.254336
 30
0.0
 10
66.873235
 20
7.338647
 30
0.0
 10
67.026369
 20
7.369564
 30
0.0
 10
67.179504
 20
7.338647
 30
0.0
 10
67.304555
 20
7.254336
 30
0.0
 10
67.388867
 20
7.129284
 30
0.0
 10
67.419784
 20
6.976150
 30
0.0
  0
LWPOLYLINE
  5
126
100
AcDbEntity
  8
Layer_1
 62
7
100
AcDbPolyline
 90
17
 70
1
 10
61.954915
 20
6.976150
 30
0.0
 10
61.924969
 20
6.825596
 30
0.0
 10
61.839688
 20
6.697962
 30
0.0
 10
61.712055
 20
6.612680
 30
0.0
 10
61.561502
 20
6.582733
 30
0.0
 10
61.410948
 20
6.612680
 30
0.0
 10
61.283315
 20
6.697962
 30
0.0
 10
61.198034
 20
6.825596
 30
0.0
 10
61.168087
 20
6.976150
 30
0.0
 10
61.199004
 20
7.129284
 30
0.0
 10
61.283316
 20
7.254336
 30
0.0
 10
61.408367
 20
7.338648
 30
0.0
 10
61.561502
 20
7.369564
 30
0.0
 10
61.714636
 20
7.338647
 30
0.0
 10
61.839687
 20
7.254335
 30
0.0
 10
61.923999
 20
7.129284
 30
0.0
 10
61.954915
 20
6.976150
 30
0.0
  0
LWPOLYLINE
  5
127
100
AcDbEntity
  8
Layer_1
 62
7
100
AcDbPolyline
 90
17
 70
1
 10
61.954915
 20
15.707442
 30
0.0
 10
61.923999
 20
15.554308
 30
0.0
 10
61.839687
 20
15.429256
 30
0.0
 10
61.714636
 20
15.344944
 30
0.0
 10
61.561502
 20
15.314028
 30
0.0
 10
61.408367
 20
15.344944
 30
0.0
 10
61.283316
 20
15.429256
 30
0.0
 10
61.199004
 20
15.554307
 30
0.0
 10
61.168087
 20
15.707442
 30
0.0
 10
61.199004
 20
15.860577
 30
0.0
 10
61.283316
 20
15.985628
 30
0.0
 10
61.408367
 20
16.069940
 30
0.0
 10
61.561502
 20
16.100856
 30
0.0
 10
61.714636
 20
16.069940
 30
0.0
 10
61.839687
 20
15.985628
 30
0.0
 10
61.923999
 20
15.860576
 30
0.0
 10
61.954915
 20
15.707442
 30
0.0
  0
LWPOLYLINE
  5
128
100
AcDbEntity
  8
Layer_1
 62
7
100
AcDbPolyline
 90
17
 70
1
 10
67.419784
 20
15.707442
 30
0.0
 10
67.388867
 20
15.554307
 30
0.0
 10
67.304555
 20
15.429256
 30
0.0
 10
67.179504
 20
15.344944
 30
0.0
 10
67.026369
 20
15.314028
 30
0.0
 10
66.873235
 20
15.344944
 30
0.0
 10
66.748183
 20
15.429256
 30
0.0
 10
66.663872
 20
15.554307
 30
0.0
 10
66.632955
 20
15.707442
 30
0.0
 10
66.663872
 20
15.860577
 30
0.0
 10
66.748183
 20
15.985628
 30
0.0
 10
66.873235
 20
16.069940
 30
0.0
 10
67.026369
 20
16.100856
 30
0.0
 10
67.179504
 20
16.069940
 30
0.0
 10
67.304555
 20
15.985628
 30
0.0
 10
67.388867
 20
15.860577
 30
0.0
 10
67.419784
 20
15.707442
 30
0.0
  0
LWPOLYLINE
  5
129
100
AcDbEntity
  8
Layer_1
 62
7
100
AcDbPolyline
 90
4
 70
1
 10
43.206901
 20
17.200840
 30
0.0
 10
43.471484
 20
17.200840
 30
0.0
 10
43.471484
 20
16.936257
 30
0.0
 10
43.206901
 20
16.936257
 30
0.0
  0
ENDSEC
  0
SECTION
  2
OBJECTS
  0
DICTIONARY
  5
C
330
0
100
AcDbDictionary
  3
ACAD_GROUP
350
D
  3
ACAD_MLINESTYLE
350
17
  0
DICTIONARY
  5
D
330
C
100
AcDbDictionary
  0
DICTIONARY
  5
1A
330
C
100
AcDbDictionary
  0
DICTIONARY
  5
17
330
C
100
AcDbDictionary
  3
STANDARD
350
18
  0
DICTIONARY
  5
19
330
C
100
AcDbDictionary
  0
ENDSEC
  0
EOF
