  0
SECTION
  2
HEADER
  9
$ACADVER
  1
AC1014
  9
$HANDSEED
  5
FFFF
  9
$MEASUREMENT
 70
     1
  0
ENDSEC
  0
SECTION
  2
TABLES
  0
TABLE
  2
VPORT
  5
8
330
0
100
AcDbSymbolTable
 70
     4
  0
VPORT
  5
2E
330
8
100
AcDbSymbolTableRecord
100
AcDbViewportTableRecord
  2
*ACTIVE
 70
     0
 10
0.0
 20
0.0
 11
1.0
 21
1.0
 12
210.0
 22
148.5
 13
0.0
 23
0.0
 14
10.0
 24
10.0
 15
10.0
 25
10.0
 16
0.0
 26
0.0
 36
1.0
 17
0.0
 27
0.0
 37
0.0
 40
341.0
 41
1.24
 42
50.0
 43
0.0
 44
0.0
 50
0.0
 51
0.0
 71
     0
 72
   100
 73
     1
 74
     3
 75
     0
 76
     0
 77
     0
 78
     0
  0
ENDTAB
  0
TABLE
  2
LTYPE
  5
5
330
0
100
AcDbSymbolTable
 70
     1
  0
LTYPE
  5
14
330
5
100
AcDbSymbolTableRecord
100
AcDbLinetypeTableRecord
  2
BYBLOCK
 70
     0
  3

 72
    65
 73
     0
 40
0.0
  0
LTYPE
  5
15
330
5
100
AcDbSymbolTableRecord
100
AcDbLinetypeTableRecord
  2
BYLAYER
 70
     0
  3

 72
    65
 73
     0
 40
0.0
  0
LTYPE
  5
16
330
5
100
AcDbSymbolTableRecord
100
AcDbLinetypeTableRecord
  2
CONTINUOUS
 70
     0
  3
Solid line
 72
    65
 73
     0
 40
0.0
  0
ENDTAB
  0
TABLE
  2
LAYER
  5
2
100
AcDbSymbolTable
 70
2
  0
LAYER
  5
50
100
AcDbSymbolTableRecord
100
AcDbLayerTableRecord
  2
0
 70
0
  6
CONTINUOUS
  0
LAYER
  5
51
100
AcDbSymbolTableRecord
100
AcDbLayerTableRecord
  2
Layer_1
 70
0
  6
CONTINUOUS
  0
ENDTAB
  0
TABLE
  2
STYLE
  5
3
330
0
100
AcDbSymbolTable
 70
     1
  0
STYLE
  5
11
330
3
100
AcDbSymbolTableRecord
100
AcDbTextStyleTableRecord
  2
STANDARD
 70
     0
 40
0.0
 41
1.0
 50
0.0
 71
     0
 42
2.5
  3
txt
  4

  0
ENDTAB
  0
TABLE
  2
VIEW
  5
6
330
0
100
AcDbSymbolTable
 70
     0
  0
ENDTAB
  0
TABLE
  2
UCS
  5
7
330
0
100
AcDbSymbolTable
 70
     0
  0
ENDTAB
  0
TABLE
  2
APPID
  5
9
330
0
100
AcDbSymbolTable
 70
     2
  0
APPID
  5
12
330
9
100
AcDbSymbolTableRecord
100
AcDbRegAppTableRecord
  2
ACAD
 70
     0
  0
ENDTAB
  0
TABLE
  2
DIMSTYLE
  5
A
330
0
100
AcDbSymbolTable
 70
     1
  0
DIMSTYLE
105
27
330
A
100
AcDbSymbolTableRecord
100
AcDbDimStyleTableRecord
  2
ISO-25
 70
     0
  3

  4

  5

  6

  7

 40
1.0
 41
2.5
 42
0.625
 43
3.75
 44
1.25
 45
0.0
 46
0.0
 47
0.0
 48
0.0
140
2.5
141
2.5
142
0.0
143
0.03937007874016
144
1.0
145
0.0
146
1.0
147
0.625
 71
     0
 72
     0
 73
     0
 74
     0
 75
     0
 76
     0
 77
     1
 78
     8
170
     0
171
     3
172
     1
173
     0
174
     0
175
     0
176
     0
177
     0
178
     0
270
     2
271
     2
272
     2
273
     2
274
     3
340
11
275
     0
280
     0
281
     0
282
     0
283
     0
284
     8
285
     0
286
     0
287
     3
288
     0
  0
ENDTAB
  0
TABLE
  2
BLOCK_RECORD
  5
1
330
0
100
AcDbSymbolTable
 70
     1
  0
BLOCK_RECORD
  5
1F
330
1
100
AcDbSymbolTableRecord
100
AcDbBlockTableRecord
  2
*MODEL_SPACE
  0
BLOCK_RECORD
  5
1B
330
1
100
AcDbSymbolTableRecord
100
AcDbBlockTableRecord
  2
*PAPER_SPACE
  0
ENDTAB
  0
ENDSEC
  0
SECTION
  2
BLOCKS
  0
BLOCK
  5
20
330
1F
100
AcDbEntity
  8
0
100
AcDbBlockBegin
  2
*MODEL_SPACE
 70
     0
 10
0.0
 20
0.0
 30
0.0
  3
*MODEL_SPACE
  1

  0
ENDBLK
  5
21
330
1F
100
AcDbEntity
  8
0
100
AcDbBlockEnd
  0
BLOCK
  5
1C
330
1B
100
AcDbEntity
 67
     1
  8
0
100
AcDbBlockBegin
  2
*PAPER_SPACE
  1

  0
ENDBLK
  5
1D
330
1B
100
AcDbEntity
 67
     1
  8
0
100
AcDbBlockEnd
  0
ENDSEC
  0
SECTION
  2
ENTITIES
  0
LWPOLYLINE
  5
100
100
AcDbEntity
  8
Layer_1
 62
7
100
AcDbPolyline
 90
4
 70
1
 10
0.006615
 20
107.223385
 30
0.0
 10
0.006615
 20
78.865344
 30
0.0
 10
54.988167
 20
78.865344
 30
0.0
 10
54.988167
 20
107.223385
 30
0.0
  0
LWPOLYLINE
  5
101
100
AcDbEntity
  8
Layer_1
 62
7
100
AcDbPolyline
 90
17
 70
1
 10
1.843270
 20
105.780229
 30
0.0
 10
1.993826
 20
105.750257
 30
0.0
 10
2.121450
 20
105.664950
 30
0.0
 10
2.206712
 20
105.537296
 30
0.0
 10
2.236629
 20
105.386730
 30
0.0
 10
2.205704
 20
105.233624
 30
0.0
 10
2.121403
 20
105.108595
 30
0.0
 10
1.996377
 20
105.024290
 30
0.0
 10
1.843270
 20
104.993363
 30
0.0
 10
1.692701
 20
105.023280
 30
0.0
 10
1.565045
 20
105.108544
 30
0.0
 10
1.479738
 20
105.236171
 30
0.0
 10
1.449769
 20
105.386730
 30
0.0
 10
1.479701
 20
105.537328
 30
0.0
 10
1.564997
 20
105.665000
 30
0.0
 10
1.692672
 20
105.750299
 30
0.0
 10
1.843270
 20
105.780229
 30
0.0
  0
LWPOLYLINE
  5
102
100
AcDbEntity
  8
Layer_1
 62
7
100
AcDbPolyline
 90
17
 70
1
 10
53.151513
 20
105.780229
 30
0.0
 10
53.302071
 20
105.750260
 30
0.0
 10
53.429697
 20
105.664953
 30
0.0
 10
53.514961
 20
105.537299
 30
0.0
 10
53.544879
 20
105.386730
 30
0.0
 10
53.513953
 20
105.233624
 30
0.0
 10
53.429651
 20
105.108592
 30
0.0
 10
53.304620
 20
105.024288
 30
0.0
 10
53.151513
 20
104.993363
 30
0.0
 10
52.998406
 20
105.024288
 30
0.0
 10
52.873376
 20
105.108592
 30
0.0
 10
52.789073
 20
105.233624
 30
0.0
 10
52.758147
 20
105.386730
 30
0.0
 10
52.788065
 20
105.537299
 30
0.0
 10
52.873329
 20
105.664953
 30
0.0
 10
53.000955
 20
105.750260
 30
0.0
 10
53.151513
 20
105.780229
 30
0.0
  0
LWPOLYLINE
  5
103
100
AcDbEntity
  8
Layer_1
 62
7
100
AcDbPolyline
 90
40
 70
1
 10
5.529845
 20
100.312098
 30
0.0
 10
28.782494
 20
100.312098
 30
0.0
 10
29.316820
 20
100.259049
 30
0.0
 10
29.814097
 20
100.105094
 30
0.0
 10
30.263659
 20
99.861857
 30
0.0
 10
30.654834
 20
99.539182
 30
0.0
 10
30.977374
 20
99.148141
 30
0.0
 10
31.220740
 20
98.698582
 30
0.0
 10
31.374563
 20
98.201168
 30
0.0
 10
31.428300
 20
97.666291
 30
0.0
 10
31.452499
 20
85.204292
 30
0.0
 10
31.452499
 20
85.192518
 30
0.0
 10
31.374562
 20
84.651490
 30
0.0
 10
31.220739
 20
84.154214
 30
0.0
 10
30.977373
 20
83.704655
 30
0.0
 10
30.654833
 20
83.313476
 30
0.0
 10
30.263658
 20
82.990939
 30
0.0
 10
29.814097
 20
82.747564
 30
0.0
 10
29.316819
 20
82.593746
 30
0.0
 10
28.782493
 20
82.540012
 30
0.0
 10
28.768542
 20
82.540012
 30
0.0
 10
5.532856
 20
82.540012
 30
0.0
 10
5.529839
 20
82.540012
 30
0.0
 10
4.994960
 20
82.593746
 30
0.0
 10
4.498364
 20
82.747564
 30
0.0
 10
4.048673
 20
82.990939
 30
0.0
 10
3.656946
 20
83.313476
 30
0.0
 10
3.334409
 20
83.704655
 30
0.0
 10
3.091034
 20
84.154214
 30
0.0
 10
2.937896
 20
84.651490
 30
0.0
 10
2.878011
 20
85.192518
 30
0.0
 10
2.884043
 20
97.666278
 30
0.0
 10
2.897722
 20
97.801639
 30
0.0
 10
2.937917
 20
98.201155
 30
0.0
 10
3.091053
 20
98.698569
 30
0.0
 10
3.334427
 20
99.148127
 30
0.0
 10
3.656968
 20
99.539168
 30
0.0
 10
4.048691
 20
99.861844
 30
0.0
 10
4.498382
 20
100.105080
 30
0.0
 10
4.994979
 20
100.259036
 30
0.0
  0
LWPOLYLINE
  5
104
100
AcDbEntity
  8
Layer_1
 62
7
100
AcDbPolyline
 90
17
 70
1
 10
1.843270
 20
81.095503
 30
0.0
 10
1.996377
 20
81.064576
 30
0.0
 10
2.121403
 20
80.980272
 30
0.0
 10
2.205704
 20
80.855243
 30
0.0
 10
2.236629
 20
80.702137
 30
0.0
 10
2.206712
 20
80.551570
 30
0.0
 10
2.121450
 20
80.423917
 30
0.0
 10
1.993826
 20
80.338610
 30
0.0
 10
1.843270
 20
80.308638
 30
0.0
 10
1.692672
 20
80.338568
 30
0.0
 10
1.564997
 20
80.423867
 30
0.0
 10
1.479698
 20
80.551539
 30
0.0
 10
1.449769
 20
80.702137
 30
0.0
 10
1.479738
 20
80.852695
 30
0.0
 10
1.565045
 20
80.980322
 30
0.0
 10
1.692701
 20
81.065587
 30
0.0
 10
1.843270
 20
81.095503
 30
0.0
  0
LWPOLYLINE
  5
105
100
AcDbEntity
  8
Layer_1
 62
7
100
AcDbPolyline
 90
17
 70
1
 10
53.151513
 20
81.095503
 30
0.0
 10
53.304620
 20
81.064579
 30
0.0
 10
53.429651
 20
80.980275
 30
0.0
 10
53.513953
 20
80.855243
 30
0.0
 10
53.544879
 20
80.702137
 30
0.0
 10
53.514961
 20
80.551568
 30
0.0
 10
53.429697
 20
80.423914
 30
0.0
 10
53.302071
 20
80.338607
 30
0.0
 10
53.151513
 20
80.308638
 30
0.0
 10
53.000955
 20
80.338607
 30
0.0
 10
52.873329
 20
80.423914
 30
0.0
 10
52.788065
 20
80.551568
 30
0.0
 10
52.758147
 20
80.702137
 30
0.0
 10
52.789073
 20
80.855243
 30
0.0
 10
52.873376
 20
80.980275
 30
0.0
 10
52.998406
 20
81.064579
 30
0.0
 10
53.151513
 20
81.095503
 30
0.0
  0
LWPOLYLINE
  5
106
100
AcDbEntity
  8
Layer_1
 62
7
100
AcDbPolyline
 90
20
 70
1
 10
5.181740
 20
84.672421
 30
0.0
 10
5.011780
 20
84.638105
 30
0.0
 10
4.872593
 20
84.544035
 30
0.0
 10
4.778528
 20
84.404983
 30
0.0
 10
4.744342
 20
84.234896
 30
0.0
 10
4.744342
 20
83.572998
 30
0.0
 10
4.778528
 20
83.402911
 30
0.0
 10
4.872593
 20
83.263859
 30
0.0
 10
5.011780
 20
83.169654
 30
0.0
 10
5.181740
 20
83.135473
 30
0.0
 10
7.369918
 20
83.135473
 30
0.0
 10
7.540691
 20
83.169654
 30
0.0
 10
7.679738
 20
83.263859
 30
0.0
 10
7.773122
 20
83.402911
 30
0.0
 10
7.808124
 20
83.572998
 30
0.0
 10
7.808124
 20
84.234896
 30
0.0
 10
7.773122
 20
84.404983
 30
0.0
 10
7.679738
 20
84.544035
 30
0.0
 10
7.540691
 20
84.638105
 30
0.0
 10
7.369918
 20
84.672421
 30
0.0
  0
LWPOLYLINE
  5
107
100
AcDbEntity
  8
Layer_1
 62
7
100
AcDbPolyline
 90
17
 70
1
 10
5.604359
 20
84.297380
 30
0.0
 10
5.754918
 20
84.267410
 30
0.0
 10
5.882545
 20
84.182104
 30
0.0
 10
5.967809
 20
84.054447
 30
0.0
 10
5.997726
 20
83.903878
 30
0.0
 10
5.966799
 20
83.750772
 30
0.0
 10
5.882497
 20
83.625743
 30
0.0
 10
5.757466
 20
83.541439
 30
0.0
 10
5.604359
 20
83.510514
 30
0.0
 10
5.453793
 20
83.540433
 30
0.0
 10
5.326137
 20
83.625695
 30
0.0
 10
5.240830
 20
83.753320
 30
0.0
 10
5.210860
 20
83.903878
 30
0.0
 10
5.240790
 20
84.054476
 30
0.0
 10
5.326089
 20
84.182151
 30
0.0
 10
5.453761
 20
84.267450
 30
0.0
 10
5.604359
 20
84.297380
 30
0.0
  0
LWPOLYLINE
  5
108
100
AcDbEntity
  8
Layer_1
 62
7
100
AcDbPolyline
 90
17
 70
1
 10
6.948112
 20
84.297380
 30
0.0
 10
7.098670
 20
84.267410
 30
0.0
 10
7.226297
 20
84.182104
 30
0.0
 10
7.311562
 20
84.054447
 30
0.0
 10
7.341478
 20
83.903878
 30
0.0
 10
7.310551
 20
83.750772
 30
0.0
 10
7.226250
 20
83.625743
 30
0.0
 10
7.101218
 20
83.541439
 30
0.0
 10
6.948112
 20
83.510514
 30
0.0
 10
6.797545
 20
83.540433
 30
0.0
 10
6.669889
 20
83.625695
 30
0.0
 10
6.584582
 20
83.753320
 30
0.0
 10
6.554613
 20
83.903878
 30
0.0
 10
6.584543
 20
84.054476
 30
0.0
 10
6.669842
 20
84.182151
 30
0.0
 10
6.797514
 20
84.267450
 30
0.0
 10
6.948112
 20
84.297380
 30
0.0
  0
LWPOLYLINE
  5
109
100
AcDbEntity
  8
Layer_1
 62
7
100
AcDbPolyline
 90
20
 70
1
 10
26.941727
 20
84.672421
 30
0.0
 10
26.771781
 20
84.638105
 30
0.0
 10
26.632588
 20
84.544035
 30
0.0
 10
26.538522
 20
84.404846
 30
0.0
 10
26.504343
 20
84.234896
 30
0.0
 10
26.504343
 20
83.572863
 30
0.0
 10
26.538522
 20
83.402911
 30
0.0
 10
26.632588
 20
83.263722
 30
0.0
 10
26.771781
 20
83.169654
 30
0.0
 10
26.941727
 20
83.135473
 30
0.0
 10
29.129912
 20
83.135473
 30
0.0
 10
29.300685
 20
83.169654
 30
0.0
 10
29.439737
 20
83.263722
 30
0.0
 10
29.533117
 20
83.402911
 30
0.0
 10
29.568123
 20
83.572863
 30
0.0
 10
29.568123
 20
84.234896
 30
0.0
 10
29.533117
 20
84.404846
 30
0.0
 10
29.439737
 20
84.544035
 30
0.0
 10
29.300685
 20
84.638105
 30
0.0
 10
29.129912
 20
84.672421
 30
0.0
  0
LWPOLYLINE
  5
10a
100
AcDbEntity
  8
Layer_1
 62
7
100
AcDbPolyline
 90
17
 70
1
 10
27.364360
 20
84.297380
 30
0.0
 10
27.514916
 20
84.267408
 30
0.0
 10
27.642541
 20
84.182101
 30
0.0
 10
27.727803
 20
84.054445
 30
0.0
 10
27.757719
 20
83.903878
 30
0.0
 10
27.726794
 20
83.750774
 30
0.0
 10
27.642492
 20
83.625746
 30
0.0
 10
27.517465
 20
83.541441
 30
0.0
 10
27.364360
 20
83.510514
 30
0.0
 10
27.211251
 20
83.541439
 30
0.0
 10
27.086219
 20
83.625740
 30
0.0
 10
27.001914
 20
83.750769
 30
0.0
 10
26.970987
 20
83.903878
 30
0.0
 10
27.000905
 20
84.054447
 30
0.0
 10
27.086170
 20
84.182106
 30
0.0
 10
27.213799
 20
84.267413
 30
0.0
 10
27.364360
 20
84.297380
 30
0.0
  0
LWPOLYLINE
  5
10b
100
AcDbEntity
  8
Layer_1
 62
7
100
AcDbPolyline
 90
17
 70
1
 10
28.708113
 20
84.297380
 30
0.0
 10
28.858669
 20
84.267408
 30
0.0
 10
28.986294
 20
84.182101
 30
0.0
 10
29.071555
 20
84.054445
 30
0.0
 10
29.101472
 20
83.903878
 30
0.0
 10
29.070546
 20
83.750774
 30
0.0
 10
28.986245
 20
83.625746
 30
0.0
 10
28.861218
 20
83.541441
 30
0.0
 10
28.708113
 20
83.510514
 30
0.0
 10
28.557545
 20
83.540431
 30
0.0
 10
28.429889
 20
83.625695
 30
0.0
 10
28.344582
 20
83.753320
 30
0.0
 10
28.314612
 20
83.903878
 30
0.0
 10
28.344542
 20
84.054479
 30
0.0
 10
28.429840
 20
84.182151
 30
0.0
 10
28.557513
 20
84.267450
 30
0.0
 10
28.708113
 20
84.297380
 30
0.0
  0
LWPOLYLINE
  5
10c
100
AcDbEntity
  8
Layer_1
 62
7
100
AcDbPolyline
 90
4
 70
1
 10
57.228308
 20
107.223248
 30
0.0
 10
57.228308
 20
78.865344
 30
0.0
 10
112.209866
 20
78.865344
 30
0.0
 10
112.209866
 20
107.223248
 30
0.0
  0
LWPOLYLINE
  5
10d
100
AcDbEntity
  8
Layer_1
 62
7
100
AcDbPolyline
 90
17
 70
1
 10
59.064962
 20
105.780094
 30
0.0
 10
59.215521
 20
105.750125
 30
0.0
 10
59.343148
 20
105.664818
 30
0.0
 10
59.428411
 20
105.537161
 30
0.0
 10
59.458329
 20
105.386592
 30
0.0
 10
59.427403
 20
105.233486
 30
0.0
 10
59.343100
 20
105.108457
 30
0.0
 10
59.218069
 20
105.024153
 30
0.0
 10
59.064962
 20
104.993228
 30
0.0
 10
58.914393
 20
105.023145
 30
0.0
 10
58.786735
 20
105.108407
 30
0.0
 10
58.701426
 20
105.236034
 30
0.0
 10
58.671456
 20
105.386592
 30
0.0
 10
58.701387
 20
105.537193
 30
0.0
 10
58.786686
 20
105.664868
 30
0.0
 10
58.914361
 20
105.750164
 30
0.0
 10
59.064962
 20
105.780094
 30
0.0
  0
LWPOLYLINE
  5
10e
100
AcDbEntity
  8
Layer_1
 62
7
100
AcDbPolyline
 90
17
 70
1
 10
110.373205
 20
105.780094
 30
0.0
 10
110.523763
 20
105.750125
 30
0.0
 10
110.651391
 20
105.664818
 30
0.0
 10
110.736655
 20
105.537161
 30
0.0
 10
110.766572
 20
105.386592
 30
0.0
 10
110.735644
 20
105.233486
 30
0.0
 10
110.651343
 20
105.108457
 30
0.0
 10
110.526311
 20
105.024153
 30
0.0
 10
110.373205
 20
104.993228
 30
0.0
 10
110.220101
 20
105.024156
 30
0.0
 10
110.095075
 20
105.108460
 30
0.0
 10
110.010773
 20
105.233489
 30
0.0
 10
109.979849
 20
105.386592
 30
0.0
 10
110.009765
 20
105.537159
 30
0.0
 10
110.095025
 20
105.664815
 30
0.0
 10
110.222649
 20
105.750122
 30
0.0
 10
110.373205
 20
105.780094
 30
0.0
  0
LWPOLYLINE
  5
10f
100
AcDbEntity
  8
Layer_1
 62
7
100
AcDbPolyline
 90
4
 70
1
 10
67.937330
 20
100.104411
 30
0.0
 10
80.757959
 20
100.104411
 30
0.0
 10
80.757959
 20
82.680307
 30
0.0
 10
67.937330
 20
82.680307
 30
0.0
  0
LWPOLYLINE
  5
110
100
AcDbEntity
  8
Layer_1
 62
7
100
AcDbPolyline
 90
9
 70
1
 10
63.831004
 20
92.305764
 30
0.0
 10
63.952498
 20
92.255263
 30
0.0
 10
64.002999
 20
92.133761
 30
0.0
 10
63.952501
 20
92.012328
 30
0.0
 10
63.831004
 20
91.961896
 30
0.0
 10
63.709494
 20
92.012328
 30
0.0
 10
63.658993
 20
92.133761
 30
0.0
 10
63.709494
 20
92.255263
 30
0.0
 10
63.831004
 20
92.305764
 30
0.0
  0
LWPOLYLINE
  5
111
100
AcDbEntity
  8
Layer_1
 62
7
100
AcDbPolyline
 90
9
 70
1
 10
64.368617
 20
91.902558
 30
0.0
 10
64.490111
 20
91.852057
 30
0.0
 10
64.540612
 20
91.730552
 30
0.0
 10
64.490111
 20
91.609050
 30
0.0
 10
64.368617
 20
91.558549
 30
0.0
 10
64.247178
 20
91.609050
 30
0.0
 10
64.196748
 20
91.730552
 30
0.0
 10
64.247178
 20
91.852057
 30
0.0
 10
64.368617
 20
91.902558
 30
0.0
  0
LWPOLYLINE
  5
112
100
AcDbEntity
  8
Layer_1
 62
7
100
AcDbPolyline
 90
9
 70
1
 10
65.847180
 20
91.701019
 30
0.0
 10
65.968682
 20
91.650518
 30
0.0
 10
66.019183
 20
91.529016
 30
0.0
 10
65.968682
 20
91.407517
 30
0.0
 10
65.847180
 20
91.357016
 30
0.0
 10
65.725675
 20
91.407515
 30
0.0
 10
65.675171
 20
91.529016
 30
0.0
 10
65.725675
 20
91.650518
 30
0.0
 10
65.847180
 20
91.701019
 30
0.0
  0
LWPOLYLINE
  5
113
100
AcDbEntity
  8
Layer_1
 62
7
100
AcDbPolyline
 90
9
 70
1
 10
65.376705
 20
91.297675
 30
0.0
 10
65.498202
 20
91.247243
 30
0.0
 10
65.548706
 20
91.125810
 30
0.0
 10
65.498202
 20
91.004308
 30
0.0
 10
65.376705
 20
90.953807
 30
0.0
 10
65.255196
 20
91.004308
 30
0.0
 10
65.204695
 20
91.125810
 30
0.0
 10
65.255196
 20
91.247243
 30
0.0
 10
65.376705
 20
91.297675
 30
0.0
  0
LWPOLYLINE
  5
114
100
AcDbEntity
  8
Layer_1
 62
7
100
AcDbPolyline
 90
9
 70
1
 10
64.301478
 20
90.692930
 30
0.0
 10
64.422980
 20
90.642429
 30
0.0
 10
64.473481
 20
90.520928
 30
0.0
 10
64.422975
 20
90.399426
 30
0.0
 10
64.301478
 20
90.348925
 30
0.0
 10
64.179974
 20
90.399426
 30
0.0
 10
64.129470
 20
90.520928
 30
0.0
 10
64.179974
 20
90.642429
 30
0.0
 10
64.301478
 20
90.692930
 30
0.0
  0
LWPOLYLINE
  5
115
100
AcDbEntity
  8
Layer_1
 62
7
100
AcDbPolyline
 90
9
 70
1
 10
64.906356
 20
90.222454
 30
0.0
 10
65.027791
 20
90.171953
 30
0.0
 10
65.078224
 20
90.050451
 30
0.0
 10
65.027791
 20
89.928946
 30
0.0
 10
64.906356
 20
89.878445
 30
0.0
 10
64.784859
 20
89.928946
 30
0.0
 10
64.734361
 20
90.050451
 30
0.0
 10
64.784859
 20
90.171953
 30
0.0
 10
64.906356
 20
90.222454
 30
0.0
  0
LWPOLYLINE
  5
116
100
AcDbEntity
  8
Layer_1
 62
7
100
AcDbPolyline
 90
9
 70
1
 10
63.696601
 20
86.929513
 30
0.0
 10
63.818101
 20
86.879012
 30
0.0
 10
63.868604
 20
86.757513
 30
0.0
 10
63.818101
 20
86.636011
 30
0.0
 10
63.696601
 20
86.585510
 30
0.0
 10
63.575094
 20
86.636011
 30
0.0
 10
63.524593
 20
86.757513
 30
0.0
 10
63.575094
 20
86.879012
 30
0.0
 10
63.696601
 20
86.929513
 30
0.0
  0
LWPOLYLINE
  5
117
100
AcDbEntity
  8
Layer_1
 62
7
100
AcDbPolyline
 90
17
 70
1
 10
62.829339
 20
84.297242
 30
0.0
 10
62.979895
 20
84.267270
 30
0.0
 10
63.107520
 20
84.181963
 30
0.0
 10
63.192782
 20
84.054307
 30
0.0
 10
63.222698
 20
83.903741
 30
0.0
 10
63.191771
 20
83.750637
 30
0.0
 10
63.107469
 20
83.625608
 30
0.0
 10
62.982443
 20
83.541306
 30
0.0
 10
62.829339
 20
83.510379
 30
0.0
 10
62.676230
 20
83.541304
 30
0.0
 10
62.551199
 20
83.625603
 30
0.0
 10
62.466895
 20
83.750634
 30
0.0
 10
62.435968
 20
83.903741
 30
0.0
 10
62.465887
 20
84.054310
 30
0.0
 10
62.551151
 20
84.181969
 30
0.0
 10
62.678778
 20
84.267276
 30
0.0
 10
62.829339
 20
84.297242
 30
0.0
  0
LWPOLYLINE
  5
118
100
AcDbEntity
  8
Layer_1
 62
7
100
AcDbPolyline
 90
17
 70
1
 10
64.173092
 20
84.297242
 30
0.0
 10
64.323648
 20
84.267270
 30
0.0
 10
64.451272
 20
84.181963
 30
0.0
 10
64.536534
 20
84.054307
 30
0.0
 10
64.566451
 20
83.903741
 30
0.0
 10
64.535524
 20
83.750637
 30
0.0
 10
64.451222
 20
83.625608
 30
0.0
 10
64.326196
 20
83.541306
 30
0.0
 10
64.173092
 20
83.510379
 30
0.0
 10
64.022526
 20
83.540296
 30
0.0
 10
63.894869
 20
83.625560
 30
0.0
 10
63.809563
 20
83.753185
 30
0.0
 10
63.779593
 20
83.903741
 30
0.0
 10
63.809523
 20
84.054339
 30
0.0
 10
63.894822
 20
84.182014
 30
0.0
 10
64.022494
 20
84.267313
 30
0.0
 10
64.173092
 20
84.297242
 30
0.0
  0
LWPOLYLINE
  5
119
100
AcDbEntity
  8
Layer_1
 62
7
100
AcDbPolyline
 90
17
 70
1
 10
84.589332
 20
84.297242
 30
0.0
 10
84.739932
 20
84.267313
 30
0.0
 10
84.867604
 20
84.182014
 30
0.0
 10
84.952904
 20
84.054342
 30
0.0
 10
84.982833
 20
83.903741
 30
0.0
 10
84.952864
 20
83.753185
 30
0.0
 10
84.867554
 20
83.625558
 30
0.0
 10
84.739898
 20
83.540296
 30
0.0
 10
84.589332
 20
83.510379
 30
0.0
 10
84.436228
 20
83.541306
 30
0.0
 10
84.311199
 20
83.625608
 30
0.0
 10
84.226897
 20
83.750637
 30
0.0
 10
84.195970
 20
83.903741
 30
0.0
 10
84.225887
 20
84.054307
 30
0.0
 10
84.311149
 20
84.181963
 30
0.0
 10
84.438776
 20
84.267273
 30
0.0
 10
84.589332
 20
84.297242
 30
0.0
  0
LWPOLYLINE
  5
11a
100
AcDbEntity
  8
Layer_1
 62
7
100
AcDbPolyline
 90
17
 70
1
 10
85.933087
 20
84.297242
 30
0.0
 10
86.083645
 20
84.267273
 30
0.0
 10
86.211272
 20
84.181966
 30
0.0
 10
86.296537
 20
84.054310
 30
0.0
 10
86.326453
 20
83.903741
 30
0.0
 10
86.295526
 20
83.750634
 30
0.0
 10
86.211222
 20
83.625605
 30
0.0
 10
86.086193
 20
83.541304
 30
0.0
 10
85.933087
 20
83.510379
 30
0.0
 10
85.779983
 20
83.541306
 30
0.0
 10
85.654954
 20
83.625608
 30
0.0
 10
85.570653
 20
83.750637
 30
0.0
 10
85.539726
 20
83.903741
 30
0.0
 10
85.569642
 20
84.054307
 30
0.0
 10
85.654904
 20
84.181963
 30
0.0
 10
85.782531
 20
84.267273
 30
0.0
 10
85.933087
 20
84.297242
 30
0.0
  0
LWPOLYLINE
  5
11b
100
AcDbEntity
  8
Layer_1
 62
7
100
AcDbPolyline
 90
17
 70
1
 10
59.064962
 20
81.095366
 30
0.0
 10
59.218069
 20
81.064441
 30
0.0
 10
59.343099
 20
80.980137
 30
0.0
 10
59.427403
 20
80.855108
 30
0.0
 10
59.458329
 20
80.702002
 30
0.0
 10
59.428411
 20
80.551433
 30
0.0
 10
59.343148
 20
80.423777
 30
0.0
 10
59.215521
 20
80.338470
 30
0.0
 10
59.064962
 20
80.308500
 30
0.0
 10
58.914361
 20
80.338430
 30
0.0
 10
58.786686
 20
80.423726
 30
0.0
 10
58.701387
 20
80.551401
 30
0.0
 10
58.671456
 20
80.702002
 30
0.0
 10
58.701426
 20
80.852560
 30
0.0
 10
58.786735
 20
80.980187
 30
0.0
 10
58.914393
 20
81.065449
 30
0.0
 10
59.064962
 20
81.095366
 30
0.0
  0
LWPOLYLINE
  5
11c
100
AcDbEntity
  8
Layer_1
 62
7
100
AcDbPolyline
 90
17
 70
1
 10
110.373205
 20
81.095366
 30
0.0
 10
110.526311
 20
81.064441
 30
0.0
 10
110.651343
 20
80.980137
 30
0.0
 10
110.735644
 20
80.855108
 30
0.0
 10
110.766572
 20
80.702002
 30
0.0
 10
110.736655
 20
80.551433
 30
0.0
 10
110.651391
 20
80.423777
 30
0.0
 10
110.523763
 20
80.338470
 30
0.0
 10
110.373205
 20
80.308500
 30
0.0
 10
110.222649
 20
80.338472
 30
0.0
 10
110.095025
 20
80.423779
 30
0.0
 10
110.009765
 20
80.551435
 30
0.0
 10
109.979849
 20
80.702002
 30
0.0
 10
110.010773
 20
80.855106
 30
0.0
 10
110.095075
 20
80.980135
 30
0.0
 10
110.220101
 20
81.064439
 30
0.0
 10
110.373205
 20
81.095366
 30
0.0
  0
LWPOLYLINE
  5
11d
100
AcDbEntity
  8
Layer_1
 62
7
100
AcDbPolyline
 90
9
 70
1
 10
63.831010
 20
92.305841
 30
0.0
 10
63.709518
 20
92.255353
 30
0.0
 10
63.659028
 20
92.133862
 30
0.0
 10
63.709518
 20
92.012371
 30
0.0
 10
63.831010
 20
91.961883
 30
0.0
 10
63.952498
 20
92.012373
 30
0.0
 10
64.002986
 20
92.133862
 30
0.0
 10
63.952498
 20
92.255351
 30
0.0
 10
63.831010
 20
92.305841
 30
0.0
  0
LWPOLYLINE
  5
11e
100
AcDbEntity
  8
Layer_1
 62
7
100
AcDbPolyline
 90
9
 70
1
 10
63.696601
 20
86.929513
 30
0.0
 10
63.575110
 20
86.879028
 30
0.0
 10
63.524619
 20
86.757539
 30
0.0
 10
63.575110
 20
86.636045
 30
0.0
 10
63.696601
 20
86.585557
 30
0.0
 10
63.818090
 20
86.636048
 30
0.0
 10
63.868578
 20
86.757537
 30
0.0
 10
63.818090
 20
86.879025
 30
0.0
 10
63.696601
 20
86.929513
 30
0.0
  0
LWPOLYLINE
  5
11f
100
AcDbEntity
  8
Layer_1
 62
7
100
AcDbPolyline
 90
21
 70
1
 10
61.690843
 20
95.239602
 30
0.0
 10
66.897022
 20
95.239602
 30
0.0
 10
67.210077
 20
95.176710
 30
0.0
 10
67.465181
 20
95.004993
 30
0.0
 10
67.636898
 20
94.749887
 30
0.0
 10
67.699789
 20
94.436832
 30
0.0
 10
67.699789
 20
85.964215
 30
0.0
 10
67.636898
 20
85.651160
 30
0.0
 10
67.465181
 20
85.396057
 30
0.0
 10
67.210077
 20
85.224340
 30
0.0
 10
66.897022
 20
85.161448
 30
0.0
 10
61.690843
 20
85.161448
 30
0.0
 10
61.377787
 20
85.224340
 30
0.0
 10
61.122682
 20
85.396057
 30
0.0
 10
60.950965
 20
85.651160
 30
0.0
 10
60.888073
 20
85.964215
 30
0.0
 10
60.888073
 20
94.436832
 30
0.0
 10
60.950965
 20
94.749887
 30
0.0
 10
61.122682
 20
95.004993
 30
0.0
 10
61.377787
 20
95.176710
 30
0.0
 10
61.690843
 20
95.239602
 30
0.0
  0
LWPOLYLINE
  5
120
100
AcDbEntity
  8
Layer_1
 62
7
100
AcDbPolyline
 90
9
 70
1
 10
64.906276
 20
90.222515
 30
0.0
 10
64.784785
 20
90.172027
 30
0.0
 10
64.734294
 20
90.050535
 30
0.0
 10
64.784785
 20
89.929044
 30
0.0
 10
64.906276
 20
89.878556
 30
0.0
 10
65.027762
 20
89.929047
 30
0.0
 10
65.078250
 20
90.050535
 30
0.0
 10
65.027762
 20
90.172024
 30
0.0
 10
64.906276
 20
90.222515
 30
0.0
  0
LWPOLYLINE
  5
121
100
AcDbEntity
  8
Layer_1
 62
7
100
AcDbPolyline
 90
9
 70
1
 10
64.368643
 20
91.902616
 30
0.0
 10
64.247152
 20
91.852128
 30
0.0
 10
64.196661
 20
91.730637
 30
0.0
 10
64.247152
 20
91.609146
 30
0.0
 10
64.368643
 20
91.558658
 30
0.0
 10
64.490129
 20
91.609148
 30
0.0
 10
64.540617
 20
91.730637
 30
0.0
 10
64.490129
 20
91.852126
 30
0.0
 10
64.368643
 20
91.902616
 30
0.0
  0
LWPOLYLINE
  5
122
100
AcDbEntity
  8
Layer_1
 62
7
100
AcDbPolyline
 90
9
 70
1
 10
65.847132
 20
91.701004
 30
0.0
 10
65.725641
 20
91.650516
 30
0.0
 10
65.675150
 20
91.529024
 30
0.0
 10
65.725641
 20
91.407536
 30
0.0
 10
65.847132
 20
91.357045
 30
0.0
 10
65.968621
 20
91.407536
 30
0.0
 10
66.019109
 20
91.529024
 30
0.0
 10
65.968621
 20
91.650516
 30
0.0
 10
65.847132
 20
91.701004
 30
0.0
  0
LWPOLYLINE
  5
123
100
AcDbEntity
  8
Layer_1
 62
7
100
AcDbPolyline
 90
9
 70
1
 10
65.376705
 20
91.297781
 30
0.0
 10
65.255214
 20
91.247291
 30
0.0
 10
65.204724
 20
91.125799
 30
0.0
 10
65.255214
 20
91.004311
 30
0.0
 10
65.376705
 20
90.953823
 30
0.0
 10
65.498192
 20
91.004311
 30
0.0
 10
65.548679
 20
91.125799
 30
0.0
 10
65.498192
 20
91.247291
 30
0.0
 10
65.376705
 20
91.297781
 30
0.0
  0
LWPOLYLINE
  5
124
100
AcDbEntity
  8
Layer_1
 62
7
100
AcDbPolyline
 90
9
 70
1
 10
64.301439
 20
90.692944
 30
0.0
 10
64.179947
 20
90.642453
 30
0.0
 10
64.129457
 20
90.520962
 30
0.0
 10
64.179947
 20
90.399473
 30
0.0
 10
64.301439
 20
90.348985
 30
0.0
 10
64.422925
 20
90.399476
 30
0.0
 10
64.473413
 20
90.520962
 30
0.0
 10
64.422925
 20
90.642453
 30
0.0
 10
64.301439
 20
90.692944
 30
0.0
  0
LWPOLYLINE
  5
125
100
AcDbEntity
  8
Layer_1
 62
7
100
AcDbPolyline
 90
17
 70
1
 10
67.419784
 20
85.834879
 30
0.0
 10
67.389838
 20
85.684326
 30
0.0
 10
67.304555
 20
85.556691
 30
0.0
 10
67.176923
 20
85.471410
 30
0.0
 10
67.026369
 20
85.441462
 30
0.0
 10
66.875816
 20
85.471410
 30
0.0
 10
66.748184
 20
85.556691
 30
0.0
 10
66.662901
 20
85.684326
 30
0.0
 10
66.632955
 20
85.834879
 30
0.0
 10
66.663872
 20
85.988014
 30
0.0
 10
66.748184
 20
86.113064
 30
0.0
 10
66.873234
 20
86.197377
 30
0.0
 10
67.026369
 20
86.228293
 30
0.0
 10
67.179505
 20
86.197377
 30
0.0
 10
67.304555
 20
86.113064
 30
0.0
 10
67.388867
 20
85.988014
 30
0.0
 10
67.419784
 20
85.834879
 30
0.0
  0
LWPOLYLINE
  5
126
100
AcDbEntity
  8
Layer_1
 62
7
100
AcDbPolyline
 90
17
 70
1
 10
61.954915
 20
85.834879
 30
0.0
 10
61.924970
 20
85.684326
 30
0.0
 10
61.839689
 20
85.556691
 30
0.0
 10
61.712054
 20
85.471410
 30
0.0
 10
61.561502
 20
85.441462
 30
0.0
 10
61.410948
 20
85.471410
 30
0.0
 10
61.283315
 20
85.556691
 30
0.0
 10
61.198033
 20
85.684326
 30
0.0
 10
61.168087
 20
85.834879
 30
0.0
 10
61.199004
 20
85.988014
 30
0.0
 10
61.283316
 20
86.113064
 30
0.0
 10
61.408367
 20
86.197377
 30
0.0
 10
61.561502
 20
86.228293
 30
0.0
 10
61.714637
 20
86.197377
 30
0.0
 10
61.839687
 20
86.113064
 30
0.0
 10
61.923999
 20
85.988014
 30
0.0
 10
61.954915
 20
85.834879
 30
0.0
  0
LWPOLYLINE
  5
127
100
AcDbEntity
  8
Layer_1
 62
7
100
AcDbPolyline
 90
17
 70
1
 10
61.954915
 20
94.566171
 30
0.0
 10
61.923999
 20
94.413036
 30
0.0
 10
61.839687
 20
94.287986
 30
0.0
 10
61.714637
 20
94.203674
 30
0.0
 10
61.561502
 20
94.172757
 30
0.0
 10
61.408367
 20
94.203674
 30
0.0
 10
61.283316
 20
94.287986
 30
0.0
 10
61.199004
 20
94.413036
 30
0.0
 10
61.168087
 20
94.566171
 30
0.0
 10
61.199004
 20
94.719307
 30
0.0
 10
61.283316
 20
94.844357
 30
0.0
 10
61.408367
 20
94.928669
 30
0.0
 10
61.561502
 20
94.959585
 30
0.0
 10
61.714637
 20
94.928669
 30
0.0
 10
61.839687
 20
94.844357
 30
0.0
 10
61.923999
 20
94.719307
 30
0.0
 10
61.954915
 20
94.566171
 30
0.0
  0
LWPOLYLINE
  5
128
100
AcDbEntity
  8
Layer_1
 62
7
100
AcDbPolyline
 90
17
 70
1
 10
67.419784
 20
94.566171
 30
0.0
 10
67.388867
 20
94.413036
 30
0.0
 10
67.304555
 20
94.287986
 30
0.0
 10
67.179505
 20
94.203674
 30
0.0
 10
67.026369
 20
94.172757
 30
0.0
 10
66.873234
 20
94.203674
 30
0.0
 10
66.748184
 20
94.287986
 30
0.0
 10
66.663872
 20
94.413036
 30
0.0
 10
66.632955
 20
94.566171
 30
0.0
 10
66.663872
 20
94.719307
 30
0.0
 10
66.748184
 20
94.844357
 30
0.0
 10
66.873234
 20
94.928669
 30
0.0
 10
67.026369
 20
94.959585
 30
0.0
 10
67.179505
 20
94.928669
 30
0.0
 10
67.304555
 20
94.844357
 30
0.0
 10
67.388867
 20
94.719307
 30
0.0
 10
67.419784
 20
94.566171
 30
0.0
  0
LWPOLYLINE
  5
129
100
AcDbEntity
  8
Layer_1
 62
7
100
AcDbPolyline
 90
4
 70
1
 10
43.206901
 20
96.059569
 30
0.0
 10
43.471484
 20
96.059569
 30
0.0
 10
43.471484
 20
95.794986
 30
0.0
 10
43.206901
 20
95.794986
 30
0.0
  0
ENDSEC
  0
SECTION
  2
OBJECTS
  0
DICTIONARY
  5
C
330
0
100
AcDbDictionary
  3
ACAD_GROUP
350
D
  3
ACAD_MLINESTYLE
350
17
  0
DICTIONARY
  5
D
330
C
100
AcDbDictionary
  0
DICTIONARY
  5
1A
330
C
100
AcDbDictionary
  0
DICTIONARY
  5
17
330
C
100
AcDbDictionary
  3
STANDARD
350
18
  0
DICTIONARY
  5
19
330
C
100
AcDbDictionary
  0
ENDSEC
  0
EOF
