<?xml version="1.0" encoding="UTF-8" standalone="no"?>
<!-- Created with Inkscape (http://www.inkscape.org/) -->

<svg
   xmlns:dc="http://purl.org/dc/elements/1.1/"
   xmlns:cc="http://creativecommons.org/ns#"
   xmlns:rdf="http://www.w3.org/1999/02/22-rdf-syntax-ns#"
   xmlns:svg="http://www.w3.org/2000/svg"
   xmlns="http://www.w3.org/2000/svg"
   xmlns:sodipodi="http://sodipodi.sourceforge.net/DTD/sodipodi-0.dtd"
   xmlns:inkscape="http://www.inkscape.org/namespaces/inkscape"
   width="27.745075mm"
   height="40.090672mm"
   viewBox="0 0 27.745075 40.090672"
   version="1.1"
   id="svg9543"
   inkscape:version="0.92.1 r15371"
   sodipodi:docname="Jig_probe_PCB.svg">
  <sodipodi:namedview
     id="base"
     pagecolor="#ffffff"
     bordercolor="#666666"
     borderopacity="1.0"
     inkscape:pageopacity="0.0"
     inkscape:pageshadow="2"
     inkscape:zoom="3.959798"
     inkscape:cx="35.10358"
     inkscape:cy="41.761906"
     inkscape:document-units="mm"
     inkscape:current-layer="layer1"
     showgrid="false"
     fit-margin-top="1"
     fit-margin-left="1"
     fit-margin-bottom="1"
     fit-margin-right="1"
     inkscape:window-width="2560"
     inkscape:window-height="1377"
     inkscape:window-x="-8"
     inkscape:window-y="-8"
     inkscape:window-maximized="1" />
  <defs
     id="defs9537" />
  <metadata
     id="metadata9540">
    <rdf:RDF>
      <cc:Work
         rdf:about="">
        <dc:format>image/svg+xml</dc:format>
        <dc:type
           rdf:resource="http://purl.org/dc/dcmitype/StillImage" />
        <dc:title />
      </cc:Work>
    </rdf:RDF>
  </metadata>
  <g
     transform="translate(129.53325,-146.1749)"
     id="layer1"
     inkscape:groupmode="layer"
     inkscape:label="Layer 1">
    <path
       inkscape:connector-curvature="0"
       id="rect9482"
       d="m -125.49941,147.17513 -0.61296,0.0614 -0.57021,0.17626 -0.51544,0.27907 -0.44867,0.36988 -0.36987,0.44866 -0.27908,0.51545 -0.17625,0.57021 -0.0614,0.61295 v 32.02261 l 0.0614,0.61296 0.17625,0.5702 0.27908,0.51545 0.36987,0.44867 0.44867,0.36987 0.51544,0.27908 0.57021,0.17625 0.61296,0.0614 h 19.6772 l 0.61296,-0.0614 0.57021,-0.17625 0.51544,-0.27908 0.44867,-0.36987 0.36987,-0.44867 0.27908,-0.51545 0.17625,-0.5702 0.0614,-0.61296 v -32.02261 l -0.0614,-0.61295 -0.17625,-0.57021 -0.27908,-0.51545 -0.36987,-0.44866 -0.44867,-0.36988 -0.51544,-0.27907 -0.57021,-0.17626 -0.61296,-0.0614 h -19.6772 m -0.48885,1.05833 0.29145,0.0288 0.27762,0.0843 0.25596,0.13659 0.22651,0.18566 0.18574,0.22645 0.13668,0.25592 0.0844,0.27758 0.0289,0.29145 -0.0288,0.29152 -0.0843,0.27767 -0.13665,0.256 -0.18573,0.22654 -0.22654,0.18573 -0.256,0.13665 -0.27767,0.0843 -0.29152,0.0288 -0.29145,-0.0289 -0.27759,-0.0844 -0.25591,-0.13669 -0.22645,-0.18573 -0.18566,-0.22652 -0.13659,-0.25596 -0.0843,-0.27761 -0.0288,-0.29146 0.0302,-0.29961 0.0867,-0.27906 0.13708,-0.25252 0.18154,-0.22003 0.22002,-0.18154 0.25253,-0.13708 0.27906,-0.0866 0.29961,-0.0302 v 0 m 20.65491,0 0.29961,0.0302 0.27905,0.0866 0.25253,0.13708 0.22002,0.18154 0.18154,0.22003 0.13708,0.25252 0.0867,0.27906 0.0302,0.29961 -0.0288,0.29146 -0.0843,0.27761 -0.13659,0.25596 -0.18566,0.22652 -0.22645,0.18573 -0.25591,0.13668 -0.27758,0.0844 -0.29145,0.0289 -0.29153,-0.0288 -0.27767,-0.0843 -0.256,-0.13665 -0.22653,-0.18573 -0.18574,-0.22654 -0.13665,-0.256 -0.0843,-0.27767 -0.0288,-0.29152 0.0289,-0.29145 0.0844,-0.27758 0.13668,-0.25592 0.18574,-0.22645 0.22651,-0.18566 0.25596,-0.13659 0.27762,-0.0843 0.29146,-0.0288 v 0 m -12.07721,10.0298 0.25252,0.0513 0.20669,0.1396 0.13961,0.20669 0.0513,0.25252 -0.0513,0.25252 -0.1396,0.2067 -0.2067,0.13961 -0.25252,0.0513 -0.25253,-0.0513 -0.20669,-0.1396 -0.13961,-0.2067 -0.0513,-0.25253 0.0513,-0.25252 0.13961,-0.20669 0.20669,-0.13961 0.25253,-0.0513 v 0 m 2.0319,1.52393 0.25252,0.0513 0.20669,0.13961 0.13961,0.20669 0.0513,0.25252 -0.0513,0.25252 -0.13961,0.20669 -0.20669,0.13961 -0.25252,0.0513 -0.25244,-0.0513 -0.20652,-0.13961 -0.13943,-0.2067 -0.0512,-0.25252 0.0512,-0.25252 0.13943,-0.2067 0.20652,-0.1396 0.25244,-0.0513 v 0 m 5.58825,0.76222 0.25252,0.0513 0.20669,0.13961 0.13961,0.20669 0.0513,0.25252 -0.0513,0.25244 -0.13961,0.20652 -0.20669,0.13943 -0.25252,0.0512 -0.25252,-0.0512 -0.2067,-0.13943 -0.13961,-0.20652 -0.0513,-0.25245 0.0513,-0.25252 0.13961,-0.2067 0.2067,-0.1396 0.25252,-0.0513 v 0 m -1.77817,1.52393 0.25252,0.0513 0.20669,0.13961 0.13961,0.20669 0.0513,0.25252 -0.0513,0.25252 -0.13961,0.2067 -0.20669,0.1396 -0.25252,0.0513 -0.25253,-0.0513 -0.20669,-0.13961 -0.13961,-0.20669 -0.0513,-0.25253 0.0513,-0.25252 0.13961,-0.2067 0.20669,-0.1396 0.25253,-0.0513 v 0 m -4.06381,2.28614 0.25252,0.0512 0.20669,0.13943 0.13961,0.20652 0.0513,0.25243 -0.0513,0.25252 -0.13961,0.20669 -0.20669,0.13961 -0.25252,0.0513 -0.25252,-0.0513 -0.2067,-0.13961 -0.1396,-0.20669 -0.0513,-0.25253 0.0513,-0.25244 0.1396,-0.20652 0.2067,-0.13943 0.25252,-0.0512 v 0 m 2.28615,1.77766 0.25244,0.0513 0.20652,0.13961 0.13943,0.20669 0.0512,0.25252 -0.0512,0.25252 -0.13943,0.2067 -0.20652,0.1396 -0.25244,0.0513 -0.25252,-0.0513 -0.2067,-0.13961 -0.1396,-0.20669 -0.0513,-0.25253 0.0513,-0.25252 0.13961,-0.2067 0.20669,-0.1396 0.25252,-0.0513 v 0 m -4.5723,12.44617 0.25252,0.0513 0.2067,0.13961 0.13961,0.2067 0.0513,0.25252 -0.0513,0.25243 -0.13961,0.20652 -0.20669,0.13943 -0.25252,0.0512 -0.25252,-0.0512 -0.2067,-0.13943 -0.1396,-0.20652 -0.0513,-0.25244 0.0513,-0.25253 0.13961,-0.20669 0.20669,-0.13961 0.25252,-0.0513 v 0 m -8.06972,2.64995 0.29152,0.0288 0.27767,0.0843 0.256,0.13665 0.22654,0.18574 0.18573,0.22653 0.13665,0.256 0.0843,0.27767 0.0288,0.29153 -0.0289,0.29145 -0.0844,0.27758 -0.13668,0.25591 -0.18574,0.22645 -0.22651,0.18566 -0.25596,0.13659 -0.27762,0.0843 -0.29145,0.0288 -0.29961,-0.0302 -0.27906,-0.0866 -0.25253,-0.13708 -0.22002,-0.18154 -0.18154,-0.22002 -0.13708,-0.25253 -0.0867,-0.27906 -0.0302,-0.2996 0.0288,-0.29146 0.0843,-0.27762 0.13659,-0.25596 0.18566,-0.22651 0.22645,-0.18574 0.25591,-0.13668 0.27759,-0.0844 0.29145,-0.0289 v 0 m 20.65491,0 0.29145,0.0289 0.27758,0.0844 0.25591,0.13668 0.22645,0.18574 0.18566,0.22651 0.13659,0.25596 0.0843,0.27762 0.0288,0.29146 -0.0302,0.2996 -0.0867,0.27906 -0.13708,0.25253 -0.18154,0.22002 -0.22002,0.18154 -0.25253,0.13708 -0.27905,0.0866 -0.29961,0.0302 -0.29146,-0.0288 -0.27762,-0.0843 -0.25596,-0.13659 -0.22651,-0.18566 -0.18574,-0.22645 -0.13668,-0.25591 -0.0844,-0.27758 -0.0289,-0.29145 0.0288,-0.29153 0.0843,-0.27767 0.13665,-0.256 0.18574,-0.22653 0.22653,-0.18574 0.256,-0.13665 0.27767,-0.0843 0.29153,-0.0288 v 0"
       style="opacity:0.625;fill:#1a1a1a;fill-opacity:0.86934671;fill-rule:nonzero;stroke:none;stroke-width:0.04999961;stroke-miterlimit:4;stroke-dasharray:none;stroke-dashoffset:0;stroke-opacity:1" />
  </g>
</svg>
